<svg width="17" height="16" viewBox="0 0 17 16" fill="none" xmlns="http://www.w3.org/2000/svg">
<path d="M11.407 13.2421L1.07469 5.85696C0.0276409 5.1086 0.383569 3.55041 1.68921 3.18399L12.6706 0.0956617C13.1425 -0.0807988 13.6676 -0.0104583 14.0808 0.284559C14.4939 0.579577 14.7443 1.06302 14.7531 1.58283L14.1023 12.0557C14.0252 13.2988 12.454 13.9905 11.407 13.2421Z" fill="url(#paint0_linear_60_2)"/>
<path d="M8.1299 15.0652L2.04285 2.73042C1.75915 2.15507 1.81045 1.46353 2.17566 0.93986C2.54088 0.416191 3.15845 0.148684 3.77468 0.247222L15.0555 2.05128C15.5824 2.13555 16.0382 2.47682 16.2808 2.96871C16.5234 3.46059 16.5233 4.04327 16.2805 4.53508L11.0839 15.0658C10.7994 15.6395 10.2292 16.0001 9.60671 16C8.98427 15.9998 8.41418 15.639 8.1299 15.0652V15.0652Z" fill="url(#paint1_linear_60_2)"/>
<path d="M14.7255 1.99822L9.10206 1.09888L2.19775 3.04139L4.9536 8.62784L11.407 13.2421C11.5493 13.3428 11.7059 13.4199 11.8712 13.4707L14.3223 8.50371L14.7255 1.99822Z" fill="#001A49"/>
<defs>
<linearGradient id="paint0_linear_60_2" x1="7.85861" y1="16.4712" x2="14.6377" y2="6.52723" gradientUnits="userSpaceOnUse">
<stop stop-color="#FFD7A9"/>
<stop offset="1" stop-color="#FFAE70"/>
</linearGradient>
<linearGradient id="paint1_linear_60_2" x1="10.0944" y1="19.7287" x2="20.7805" y2="9.52308" gradientUnits="userSpaceOnUse">
<stop stop-color="#CD10FF"/>
<stop offset="1" stop-color="#9F06FF"/>
</linearGradient>
</defs>
</svg>
